<?xml version="1.0" encoding="utf-8"?>
<!DOCTYPE svg PUBLIC "-//W3C//DTD SVG 1.1//EN" "http://www.w3.org/Graphics/SVG/1.1/DTD/svg11.dtd">
<svg version="1.1" xmlns="http://www.w3.org/2000/svg" xmlns:xlink="http://www.w3.org/1999/xlink" x="0px" y="0px"
	 width="480px" height="118px" viewBox="0 0 480 118" enable-background="new 0 0 480 118" xml:space="preserve">
    <path fill="#387aa4" d="m106.291,29.023 c-9.934,-15.637 -27.394,-26.023 -47.291,-26.023 c-30.928,0 -56,25.072 -56,56 c0,13.281 4.633,25.474 12.358,35.074 c0.899,-2.836 2.525,-7.617 3.976,-9.991 c4.742,-56.234 64.956,-45.928 86.957,-55.06 z m2.84,5.021 c-1.495,3.506 -3.07,6.838 -4.711,10.014 c-0.271,0.12 -0.549,0.248 -0.84,0.396 c-7.475,3.809 -34.897,0.736 -34.897,0.736 s21.664,5.886 32.763,4.326 c-0.965,1.676 -1.95,3.305 -2.954,4.88 c-7.212,2.779 -31.326,-1.812 -31.326,-1.812 s18.079,6.435 28.373,6.204 c-1.477,2.103 -2.994,4.091 -4.537,5.992 c-9.959,-0.87 -21.507,-3.442 -21.507,-3.442 s9.745,3.812 19.331,6.031 c-19.065,21.933 -42.375,29.165 -62.493,23.714 c-0.856,0.428 -2.968,6.821 -4.032,10.196 c9.83,8.54 22.656,13.721 36.699,13.721 c30.928,0 56,-25.072 56,-56 c0,-8.97 -2.12,-17.44 -5.869,-24.956 z m-38.464,8.039 c-18.836,3.71 -57.775,39.456 -53.083,64.75 c7.194,-32.472 35.777,-57.166 53.083,-64.75 z"/>
	<path fill="#387aa4" d="m178.999,92.673 h-43.61 v-67.46 h1.996 v65.57 h41.614 v1.89 z m5.88701,-39.919 c0.864,-1.984 2.111,-3.7 3.742,-5.149 c1.63,-1.448 3.625,-2.582 5.988,-3.401 c2.361,-0.818 5.14,-1.229 8.333,-1.229 c2.261,0 4.406,0.222 6.437,0.662 c2.029,0.441 3.808,1.213 5.339,2.315 c1.529,1.103 2.76,2.536 3.692,4.299 c0.931,1.764 1.43,3.968 1.497,6.614 v30.895 c0,0.945 0.2,1.639 0.599,2.079 c0.399,0.441 0.931,0.74 1.597,0.897 c0.664,0.157 1.38,0.221 2.146,0.188 c0.764,-0.031 1.479,-0.078 2.146,-0.142 v1.89 h-2.994 c-1.464,0 -2.745,-0.331 -3.842,-0.992 s-1.646,-1.904 -1.646,-3.731 v-6.331 h-0.2 c-0.533,1.575 -1.381,3.087 -2.545,4.535 c-1.165,1.45 -2.629,2.74 -4.391,3.874 c-1.764,1.134 -3.777,2.031 -6.038,2.692 c-2.263,0.662 -4.725,0.992 -7.385,0.992 c-5.189,0 -9.348,-1.086 -12.475,-3.26 c-3.128,-2.173 -4.69,-5.433 -4.69,-9.778 c0,-3.023 0.515,-5.447 1.547,-7.275 c1.031,-1.826 2.378,-3.26 4.042,-4.299 c1.662,-1.039 3.558,-1.763 5.688,-2.173 c2.128,-0.409 4.257,-0.677 6.387,-0.804 c3.526,-0.188 6.552,-0.361 9.082,-0.52 c2.528,-0.156 4.606,-0.472 6.237,-0.944 c1.629,-0.473 2.827,-1.196 3.592,-2.173 c0.764,-0.977 1.148,-2.377 1.148,-4.205 c0,-1.448 -0.134,-2.96 -0.399,-4.535 c-0.267,-1.574 -0.915,-3.023 -1.946,-4.346 c-1.032,-1.323 -2.545,-2.409 -4.541,-3.259 c-1.996,-0.851 -4.69,-1.276 -8.083,-1.276 c-5.389,0 -9.581,1.245 -12.574,3.732 c-2.994,2.489 -4.658,6 -4.99,10.535 h-1.996 c0.130996,-2.267 0.630996,-4.393 1.496,-6.377 z m32.832,11.386 c-0.666,0.883 -1.696,1.559 -3.094,2.031 c-1.397,0.473 -2.994,0.835 -4.79,1.086 c-1.796,0.253 -3.742,0.411 -5.838,0.473 c-2.096,0.063 -4.142,0.158 -6.138,0.283 c-1.996,0.127 -3.941,0.363 -5.838,0.709 c-1.896,0.347 -3.577,0.978 -5.04,1.89 c-1.464,0.914 -2.629,2.173 -3.493,3.779 c-0.865,1.606 -1.297,3.701 -1.297,6.283 c0,1.386 0.25,2.756 0.749,4.109 c0.499,1.355 1.347,2.552 2.544,3.591 c1.198,1.039 2.745,1.89 4.641,2.551 s4.241,0.992 7.036,0.992 c3.326,0 6.287,-0.534 8.882,-1.606 c2.594,-1.07 4.773,-2.471 6.536,-4.204 c1.762,-1.731 3.094,-3.732 3.992,-6 c0.898,-2.268 1.347,-4.597 1.347,-6.991 v-8.976 h-0.199 z m15.766,-20.031 v12 h0.2 c0.465,-1.89 1.213,-3.622 2.246,-5.197 c1.031,-1.574 2.328,-2.96 3.892,-4.157 c1.562,-1.196 3.375,-2.125 5.44,-2.787 c2.061,-0.661 4.355,-0.992 6.885,-0.992 c2.66,0 5.105,0.378 7.336,1.134 c2.227,0.756 4.156,1.875 5.787,3.354 c1.629,1.48 2.895,3.307 3.793,5.48 c0.898,2.173 1.346,4.677 1.346,7.511 v32.219 h-1.994 v-31.936 c0,-2.835 -0.434,-5.244 -1.299,-7.228 c-0.865,-1.984 -2.045,-3.622 -3.543,-4.913 c-1.496,-1.291 -3.227,-2.235 -5.188,-2.834 c-1.965,-0.598 -4.043,-0.898 -6.238,-0.898 c-3.061,0 -5.756,0.552 -8.084,1.654 c-2.329,1.103 -4.275,2.583 -5.838,4.44 c-1.564,1.859 -2.744,4.016 -3.542,6.472 c-0.798,2.457 -1.198,5.04 -1.198,7.748 v27.494 h-1.996 v-48.564 h1.995 z m86.721,32.313 c-0.533,2.143 -1.48,4.062 -2.844,5.764 c-1.363,1.7 -2.961,3.134 -4.789,4.299 c-1.832,1.166 -3.828,2.048 -5.988,2.646 c-2.162,0.6 -4.342,0.897 -6.537,0.897 c-3.592,0 -6.721,-0.629 -9.381,-1.89 c-2.662,-1.259 -4.873,-2.943 -6.637,-5.055 c-1.762,-2.109 -3.092,-4.582 -3.99,-7.417 c-0.898,-2.834 -1.348,-5.794 -1.348,-8.881 c0,-3.274 0.465,-6.346 1.396,-9.212 c0.932,-2.866 2.328,-5.386 4.191,-7.559 c1.861,-2.173 4.174,-3.889 6.936,-5.149 c2.76,-1.259 5.938,-1.89 9.531,-1.89 c2.461,0 4.756,0.363 6.885,1.087 c2.129,0.725 4.043,1.717 5.738,2.976 c1.697,1.261 3.127,2.74 4.291,4.44 s2.012,3.56 2.545,5.574 h0.201 v-12.943 h1.994 v46.958 c0,6.676 -1.863,11.574 -5.588,14.692 c-3.727,3.118 -8.98,4.677 -15.768,4.677 c-2.594,0 -5.057,-0.283 -7.385,-0.851 c-2.33,-0.566 -4.391,-1.464 -6.188,-2.692 c-1.795,-1.229 -3.227,-2.804 -4.291,-4.725 c-1.064,-1.922 -1.631,-4.268 -1.695,-7.039 h1.994 c0.066,2.394 0.582,4.441 1.547,6.142 c0.965,1.701 2.246,3.086 3.844,4.157 c1.596,1.07 3.441,1.857 5.537,2.362 c2.096,0.503 4.275,0.756 6.537,0.756 c6.252,0 11.061,-1.402 14.42,-4.204 c3.359,-2.804 5.041,-7.229 5.041,-13.275 v-14.645 h-0.199001 z m-1.146,-17.763 c-0.834,-2.646 -2.062,-4.991 -3.693,-7.039 c-1.631,-2.046 -3.676,-3.685 -6.137,-4.913 c-2.463,-1.229 -5.289,-1.843 -8.482,-1.843 c-3.328,0 -6.238,0.583 -8.732,1.748 c-2.494,1.167 -4.59,2.756 -6.287,4.771 c-1.697,2.017 -2.961,4.346 -3.793,6.992 s-1.246,5.449 -1.246,8.409 c0,3.023 0.414,5.826 1.246,8.408 c0.832,2.584 2.062,4.835 3.693,6.756 c1.629,1.922 3.643,3.434 6.037,4.535 c2.396,1.103 5.156,1.653 8.283,1.653 c3.326,0 6.254,-0.566 8.781,-1.7 c2.529,-1.134 4.641,-2.661 6.338,-4.583 c1.697,-1.921 2.994,-4.188 3.893,-6.803 c0.898,-2.613 1.346,-5.369 1.346,-8.267 c-0.000996828,-2.769 -0.416982,-5.478 -1.247,-8.124 z m46.353,-6.425 c-0.799,-1.701 -1.93,-3.102 -3.393,-4.204 c-1.465,-1.102 -3.211,-1.905 -5.24,-2.41 c-2.029,-0.503 -4.275,-0.756 -6.736,-0.756 c-3.592,0 -6.42,0.458 -8.482,1.37 c-2.062,0.914 -3.592,1.953 -4.59,3.118 c-0.998,1.166 -1.631,2.314 -1.896,3.448 s-0.398,1.922 -0.398,2.362 c0,2.394 0.514,4.237 1.547,5.527 c1.031,1.292 2.41,2.284 4.141,2.977 c1.797,0.693 3.742,1.292 5.838,1.795 c2.096,0.505 4.541,1.103 7.336,1.795 c1.996,0.505 3.975,1.025 5.938,1.56 c1.961,0.535 3.725,1.275 5.289,2.22 c1.562,0.945 2.826,2.143 3.793,3.591 c0.963,1.449 1.445,3.339 1.445,5.669 c0,2.456 -0.549,4.535 -1.646,6.235 c-1.098,1.701 -2.529,3.087 -4.291,4.157 c-1.764,1.072 -3.76,1.843 -5.986,2.315 c-2.23,0.472 -4.441,0.708 -6.637,0.708 c-6.854,0 -12.025,-1.417 -15.518,-4.251 c-3.494,-2.835 -5.24,-7.307 -5.24,-13.417 h1.996 c0,5.48 1.611,9.495 4.84,12.047 c3.227,2.551 7.867,3.826 13.922,3.826 c1.861,0 3.775,-0.204 5.738,-0.614 c1.961,-0.409 3.742,-1.07 5.338,-1.984 c1.598,-0.912 2.91,-2.093 3.943,-3.543 c1.029,-1.448 1.547,-3.212 1.547,-5.291 c0,-2.141 -0.518,-3.873 -1.547,-5.196 c-1.033,-1.322 -2.363,-2.409 -3.992,-3.26 c-1.631,-0.851 -3.51,-1.526 -5.639,-2.031 c-2.131,-0.503 -4.291,-1.007 -6.486,-1.512 c-2.463,-0.566 -4.625,-1.102 -6.486,-1.606 c-1.863,-0.503 -3.527,-1.07 -4.99,-1.7 c-2.131,-0.882 -3.693,-2.109 -4.691,-3.685 c-0.998,-1.574 -1.496,-3.686 -1.496,-6.331 c0,-1.323 0.299,-2.708 0.898,-4.157 c0.598,-1.448 1.596,-2.771 2.994,-3.968 c1.396,-1.196 3.193,-2.173 5.389,-2.929 s4.889,-1.134 8.082,-1.134 c5.723,0 10.246,1.229 13.572,3.685 s4.99,6.394 4.99,11.811 h-1.996 c-0.00297761,-2.457 -0.400988,-4.536 -1.2,-6.237 z"/>
	<path fill="#387aa4" opacity="0.5" d="m424.549,33.58 v37.079 c0,7.945 -1.85,13.821 -5.545,17.628 c-3.697,3.808 -9.078,5.711 -16.139,5.711 c-7.064,0 -12.443,-1.903 -16.139,-5.711 c-3.697,-3.807 -5.547,-9.683 -5.547,-17.628 v-37.079 h1.656 v37.079 c0,7.117 1.627,12.525 4.883,16.222 s8.305,5.545 15.146,5.545 c6.84,0 11.889,-1.849 15.145,-5.545 s4.883,-9.104 4.883,-16.222 v-37.079 h1.657 z m8.93698,59.093 v-59.093 h23.918 c5.684,0 10.098,1.353 13.242,4.056 c3.146,2.704 4.719,6.732 4.719,12.083 c0,2.594 -0.471,4.897 -1.408,6.91 c-0.938,2.016 -2.234,3.697 -3.889,5.049 c-1.656,1.353 -3.629,2.373 -5.918,3.062 c-2.291,0.69 -4.814,1.034 -7.572,1.034 h-21.438 v26.898 h-1.654 z m23.918,-28.554 c2.318,0 4.471,-0.316 6.457,-0.951 c1.986,-0.634 3.709,-1.573 5.172,-2.814 c1.461,-1.241 2.607,-2.744 3.436,-4.511 c0.826,-1.765 1.24,-3.807 1.24,-6.124 c0,-4.689 -1.338,-8.276 -4.014,-10.759 c-2.678,-2.483 -6.773,-3.725 -12.291,-3.725 h-22.264 v28.884 h22.264 z"/>
</svg>
