<svg xmlns="http://www.w3.org/2000/svg" width="1000" height="1000" viewBox="0 0 1000 1000"><path stroke="#c0cad5" fill="#fff" d="M.5.5h13v13H.5zm0 14h13v13H.5z"/><path stroke="#adb6c0" fill="#dae1e8" d="M.5 28.5h13v13H.5zm0 14h13v13H.5z"/><path fill="#237ba0" d="M15 15.86a.286.286 0 0 1-.087.207L7.039 23.96a.252.252 0 0 1-.2.088h-.025a.273.273 0 0 1-.2-.088l-3.65-3.646a.355.355 0 0 1-.087-.213c0-.067.029-.138.087-.213l1.563-1.566c.142-.125.283-.125.425 0l1.875 1.892 6.099-6.126a.346.346 0 0 1 .211-.088c.067 0 .137.029.212.088l1.562 1.566a.28.28 0 0 1 .089.206zm0 28a.286.286 0 0 1-.087.207L7.039 51.96a.252.252 0 0 1-.2.088h-.025a.273.273 0 0 1-.2-.088l-3.65-3.646a.355.355 0 0 1-.087-.213c0-.067.029-.138.087-.213l1.563-1.566c.142-.125.283-.125.425 0l1.875 1.892 6.099-6.126a.346.346 0 0 1 .211-.088c.067 0 .137.029.212.088l1.562 1.566a.28.28 0 0 1 .089.206z"/><path stroke="#c0cad5" fill="#fff" d="M.5 63a6.5 6.5 0 1 0 13 0 6.5 6.5 0 1 0-13 0m0 14a6.5 6.5 0 1 0 13 0 6.5 6.5 0 1 0-13 0m0 42a6.5 6.5 0 1 0 13 0 6.5 6.5 0 1 0-13 0m0 14a6.5 6.5 0 1 0 13 0 6.5 6.5 0 1 0-13 0"/><path stroke="#adb6c0" fill="#dae1e8" d="M.5 91a6.5 6.5 0 1 0 13 0 6.5 6.5 0 1 0-13 0m0 14a6.5 6.5 0 1 0 13 0 6.5 6.5 0 1 0-13 0m0 42a6.5 6.5 0 1 0 13 0 6.5 6.5 0 1 0-13 0m0 14a6.5 6.5 0 1 0 13 0 6.5 6.5 0 1 0-13 0"/><path fill="#237ba0" d="M4.5 133a2.5 2.5 0 1 0 5 0 2.5 2.5 0 1 0-5 0m0 28a2.5 2.5 0 1 0 5 0 2.5 2.5 0 1 0-5 0M15 71.86a.286.286 0 0 1-.087.207L7.039 79.96a.252.252 0 0 1-.2.088h-.025a.273.273 0 0 1-.2-.088l-3.65-3.646a.355.355 0 0 1-.087-.213c0-.067.029-.138.087-.213l1.563-1.566c.142-.125.283-.125.425 0l1.875 1.892 6.099-6.126a.346.346 0 0 1 .211-.088c.067 0 .137.029.212.088l1.562 1.566a.28.28 0 0 1 .089.206zm0 28a.286.286 0 0 1-.087.207l-7.874 7.893a.252.252 0 0 1-.2.088h-.025a.273.273 0 0 1-.2-.088l-3.65-3.646a.355.355 0 0 1-.087-.213c0-.067.029-.138.087-.213l1.563-1.566c.142-.125.283-.125.425 0l1.875 1.892 6.099-6.126a.346.346 0 0 1 .211-.088c.067 0 .137.029.212.088l1.562 1.566a.28.28 0 0 1 .089.206z"/><path fill="#FFF" d="M36.947 181.811l-3.327-3.328 3.327-3.328a.342.342 0 0 0 0-.485l-1.572-1.57a.341.341 0 0 0-.485 0l-3.327 3.327-3.327-3.327a.345.345 0 0 0-.484 0l-1.572 1.572a.344.344 0 0 0 0 .485l3.327 3.328-3.327 3.328a.345.345 0 0 0 0 .486l1.572 1.572a.34.34 0 0 0 .484 0l3.327-3.328 3.327 3.328a.345.345 0 0 0 .485 0l1.572-1.572a.342.342 0 0 0 .078-.363.322.322 0 0 0-.078-.125zM5 173v11h10.992v-11H5zm10.009 10H5.984v-7.008h9.024l.001 7.008z"/><path fill="#237ba0" d="M14.25 198v7l-3.5-3.5zm-3.5 25v7l3.5-3.5z"/><path fill="#fff" d="M14.25 248v7l-3.5-3.5zm-3.5 25v7l3.5-3.5z"/><path fill="#65b1cf" d="M5 294v14.3h15V294z"/><path fill="#fff" d="M5 300v7.5h15V300z"/><path fill="none" stroke="#237ba0" d="M7 294.5H5v13h15v-13h-2M9.5 293v3h-1v-3m8 0v3h-1v-3m-4.5 1.5h3"/><path fill="#fff" d="M14.245 324.29a.554.554 0 0 0-.16-.375.56.56 0 0 0-.375-.161.555.555 0 0 0-.42.161l-1.29 1.29-1.289-1.29a.558.558 0 0 0-.421-.161.56.56 0 0 0-.375.161.563.563 0 0 0-.16.375.55.55 0 0 0 .16.42l1.29 1.29-1.29 1.289a.557.557 0 0 0-.16.421.554.554 0 0 0 .16.375.563.563 0 0 0 .375.16.554.554 0 0 0 .42-.161l1.29-1.289 1.29 1.29a.56.56 0 0 0 .42.161.56.56 0 0 0 .375-.161.56.56 0 0 0 .161-.375.555.555 0 0 0-.161-.42l-1.29-1.29 1.289-1.289a.554.554 0 0 0 .161-.421zM12 320a6 6 0 0 0 0 12 6 6 0 0 0 0-12zm0 10.875c-2.688 0-4.875-2.187-4.875-4.875s2.187-4.875 4.875-4.875 4.875 2.187 4.875 4.875-2.187 4.875-4.875 4.875z"/><path d="M14.245 349.29a.554.554 0 0 0-.16-.375.56.56 0 0 0-.375-.161.555.555 0 0 0-.42.161l-1.29 1.29-1.289-1.29a.558.558 0 0 0-.421-.161.56.56 0 0 0-.375.161.563.563 0 0 0-.16.375.55.55 0 0 0 .16.42l1.29 1.29-1.29 1.289a.557.557 0 0 0-.16.421.554.554 0 0 0 .16.375.563.563 0 0 0 .375.16.554.554 0 0 0 .42-.161l1.29-1.289 1.29 1.29a.56.56 0 0 0 .42.161.56.56 0 0 0 .375-.161.56.56 0 0 0 .161-.375.555.555 0 0 0-.161-.42l-1.29-1.29 1.289-1.289a.554.554 0 0 0 .161-.421zM12 345a6 6 0 0 0 0 12 6 6 0 0 0 0-12zm0 10.875c-2.688 0-4.875-2.187-4.875-4.875s2.187-4.875 4.875-4.875 4.875 2.187 4.875 4.875-2.187 4.875-4.875 4.875z"/><path fill="#fff" d="M40 321.174v2.326a5 5 0 0 1-3 9 5 5 0 0 1-3-9v-2.326a7 7 0 1 0 6 0zm-2 5.329v-6.006a.996.996 0 0 0-1-.997c-.553 0-1 .453-1 .997v6.006c0 .551.444.997 1 .997.553 0 1-.453 1-.997z"/><path d="M40 346.174v2.326a5 5 0 0 1-3 9 5 5 0 0 1-3-9v-2.326a7 7 0 1 0 6 0zm-2 5.329v-6.006a.996.996 0 0 0-1-.997c-.553 0-1 .453-1 .997v6.006c0 .551.444.997 1 .997.553 0 1-.453 1-.997z"/><path fill="#e11d21" d="M17.657 370.343a8 8 0 1 0-11.314 11.315 8 8 0 0 0 11.314-11.315zm-4.614 9.135a1.043 1.043 0 0 1-2.086 0v-4.174a1.043 1.043 0 0 1 2.086 0v4.174zm-1.062-5.957c-.601 0-1.002-.426-.989-.951-.013-.552.388-.965 1.001-.965.614 0 1.002.413 1.015.964 0 .526-.401.952-1.027.952z"/><path fill="#009800" d="M42.657 370.343a8 8 0 1 0-11.314 11.315 8 8 0 0 0 11.314-11.315zm-4.614 9.135a1.043 1.043 0 0 1-2.086 0v-4.174a1.043 1.043 0 0 1 2.086 0v4.174zm-1.062-5.957c-.601 0-1.002-.426-.989-.951-.013-.552.388-.965 1.001-.965.614 0 1.002.413 1.015.964 0 .526-.401.952-1.027.952z"/><path fill="#207de5" d="M67.657 370.343a8 8 0 1 0-11.314 11.315 8 8 0 0 0 11.314-11.315zm-4.614 9.135a1.043 1.043 0 0 1-2.086 0v-4.174a1.043 1.043 0 0 1 2.086 0v4.174zm-1.062-5.957c-.601 0-1.002-.426-.989-.951-.013-.552.388-.965 1.001-.965.614 0 1.002.413 1.015.964 0 .526-.401.952-1.027.952z"/><path fill="#fbca04" d="M92.657 370.343a8 8 0 1 0-11.314 11.315 8 8 0 0 0 11.314-11.315zm-4.614 9.135a1.043 1.043 0 0 1-2.086 0v-4.174a1.043 1.043 0 0 1 2.086 0v4.174zm-1.062-5.957c-.601 0-1.002-.426-.989-.951-.013-.552.388-.965 1.001-.965.614 0 1.002.413 1.015.964 0 .526-.401.952-1.027.952z"/><path fill="#fff" d="M117.657 370.343a8 8 0 1 0-11.314 11.315 8 8 0 0 0 11.314-11.315zm-4.614 9.135a1.043 1.043 0 0 1-2.086 0v-4.174a1.043 1.043 0 0 1 2.086 0v4.174zm-1.062-5.957c-.601 0-1.002-.426-.989-.951-.013-.552.388-.965 1.001-.965.614 0 1.002.413 1.015.964 0 .526-.401.952-1.027.952z"/><path d="M142.657 370.343a8 8 0 1 0-11.314 11.315 8 8 0 0 0 11.314-11.315zm-4.614 9.135a1.043 1.043 0 0 1-2.086 0v-4.174a1.043 1.043 0 0 1 2.086 0v4.174zm-1.062-5.957c-.601 0-1.002-.426-.989-.951-.013-.552.388-.965 1.001-.965.614 0 1.002.413 1.015.964 0 .526-.401.952-1.027.952z"/><path fill="#e11d21" d="M19.82 407.529l-6.938-13a.999.999 0 0 0-.881-.529H12a.999.999 0 0 0-.881.528l-6.969 13A1.002 1.002 0 0 0 5.031 409h13.906a1 1 0 0 0 .883-1.471zM12 407a1 1 0 1 1 0-2 1 1 0 0 1 0 2zm1-3.984a1 1 0 0 1-2 0v-4a1 1 0 0 1 2 0v4z"/><path fill="#009800" d="M44.82 407.529l-6.938-13a.999.999 0 0 0-.881-.529H37a.999.999 0 0 0-.881.528l-6.969 13a1.002 1.002 0 0 0 .881 1.472h13.906a1 1 0 0 0 .883-1.471zM37 407a1 1 0 1 1 0-2 1 1 0 0 1 0 2zm1-3.984a1 1 0 0 1-2 0v-4a1 1 0 0 1 2 0v4z"/><path fill="#207de5" d="M69.82 407.529l-6.938-13a.999.999 0 0 0-.881-.529H62a.999.999 0 0 0-.881.528l-6.969 13a1.002 1.002 0 0 0 .881 1.472h13.906a1 1 0 0 0 .883-1.471zM62 407a1 1 0 1 1 0-2 1 1 0 0 1 0 2zm1-3.984a1 1 0 0 1-2 0v-4a1 1 0 0 1 2 0v4z"/><path fill="#fbca04" d="M94.82 407.529l-6.938-13a.999.999 0 0 0-.881-.529H87a.999.999 0 0 0-.881.528l-6.969 13a1.002 1.002 0 0 0 .881 1.472h13.906a1 1 0 0 0 .883-1.471zM87 407a1 1 0 1 1 0-2 1 1 0 0 1 0 2zm1-3.984a1 1 0 0 1-2 0v-4a1 1 0 0 1 2 0v4z"/><path fill="#fff" d="M119.82 407.529l-6.938-13a.999.999 0 0 0-.881-.529H112a.999.999 0 0 0-.881.528l-6.969 13a1.002 1.002 0 0 0 .881 1.472h13.906a1 1 0 0 0 .883-1.471zM112 407a1 1 0 1 1 0-2 1 1 0 0 1 0 2zm1-3.984a1 1 0 0 1-2 0v-4a1 1 0 0 1 2 0v4z"/><path d="M144.82 407.529l-6.938-13a.999.999 0 0 0-.881-.529H137a.999.999 0 0 0-.881.528l-6.969 13a1.002 1.002 0 0 0 .881 1.472h13.906a1 1 0 0 0 .883-1.471zM137 407a1 1 0 1 1 0-2 1 1 0 0 1 0 2zm1-3.984a1 1 0 0 1-2 0v-4a1 1 0 0 1 2 0v4z"/><path fill="#e11d21" d="M12 418a8 8 0 1 0 0 16 8 8 0 0 0 0-16zm0 13.107c-.625 0-1.053-.482-1.053-1.107 0-.643.446-1.107 1.053-1.107.642 0 1.053.464 1.053 1.107 0 .625-.411 1.107-1.053 1.107zm.415-4.226c-.159.543-.661.553-.829 0-.193-.638-.877-3.057-.877-4.628 0-2.073 2.594-2.083 2.594 0-.001 1.58-.722 4.062-.888 4.628z"/><path fill="#009800" d="M37 418a8 8 0 1 0 0 16 8 8 0 0 0 0-16zm0 13.107c-.625 0-1.053-.482-1.053-1.107 0-.643.446-1.107 1.053-1.107.642 0 1.053.464 1.053 1.107 0 .625-.411 1.107-1.053 1.107zm.415-4.226c-.159.543-.661.553-.829 0-.193-.638-.877-3.057-.877-4.628 0-2.073 2.594-2.083 2.594 0-.001 1.58-.722 4.062-.888 4.628z"/><path fill="#207de5" d="M62 418a8 8 0 1 0 0 16 8 8 0 0 0 0-16zm0 13.107c-.625 0-1.053-.482-1.053-1.107 0-.643.446-1.107 1.053-1.107.642 0 1.053.464 1.053 1.107 0 .625-.411 1.107-1.053 1.107zm.415-4.226c-.159.543-.661.553-.829 0-.193-.638-.877-3.057-.877-4.628 0-2.073 2.594-2.083 2.594 0-.001 1.58-.722 4.062-.888 4.628z"/><path fill="#fbca04" d="M87 418a8 8 0 1 0 0 16 8 8 0 0 0 0-16zm0 13.107c-.625 0-1.053-.482-1.053-1.107 0-.643.446-1.107 1.053-1.107.642 0 1.053.464 1.053 1.107 0 .625-.411 1.107-1.053 1.107zm.415-4.226c-.159.543-.661.553-.829 0-.193-.638-.877-3.057-.877-4.628 0-2.073 2.594-2.083 2.594 0-.001 1.58-.722 4.062-.888 4.628z"/><path fill="#fff" d="M112 418a8 8 0 1 0 0 16 8 8 0 0 0 0-16zm0 13.107c-.625 0-1.053-.482-1.053-1.107 0-.643.446-1.107 1.053-1.107.642 0 1.053.464 1.053 1.107 0 .625-.411 1.107-1.053 1.107zm.415-4.226c-.159.543-.661.553-.829 0-.193-.638-.877-3.057-.877-4.628 0-2.073 2.594-2.083 2.594 0-.001 1.58-.722 4.062-.888 4.628z"/><path d="M137 418a8 8 0 1 0 0 16 8 8 0 0 0 0-16zm0 13.107c-.625 0-1.053-.482-1.053-1.107 0-.643.446-1.107 1.053-1.107.642 0 1.053.464 1.053 1.107 0 .625-.411 1.107-1.053 1.107zm.415-4.226c-.159.543-.661.553-.829 0-.193-.638-.877-3.057-.877-4.628 0-2.073 2.594-2.083 2.594 0-.001 1.58-.722 4.062-.888 4.628z"/><path fill="#e11d21" d="M18.756 446.814a7.96 7.96 0 0 0-2.911-2.911 7.823 7.823 0 0 0-4.016-1.074c-1.451 0-2.79.358-4.016 1.073a7.963 7.963 0 0 0-2.911 2.912 7.818 7.818 0 0 0-1.073 4.015c0 1.451.358 2.79 1.073 4.016a7.96 7.96 0 0 0 2.911 2.911c1.226.715 2.564 1.073 4.016 1.073s2.79-.358 4.016-1.073a7.96 7.96 0 0 0 2.911-2.911 7.83 7.83 0 0 0 1.073-4.016c0-1.451-.358-2.79-1.073-4.015zm-1.74 2.797l-5.656 5.656a.653.653 0 0 1-.479.198.64.64 0 0 1-.469-.198l-3.771-3.771a.636.636 0 0 1-.188-.469c0-.194.062-.354.187-.479l.948-.937a.64.64 0 0 1 .469-.198.64.64 0 0 1 .469.198l2.354 2.354 4.25-4.24a.64.64 0 0 1 .469-.198c.18 0 .337.066.469.198l.948.938a.65.65 0 0 1 .188.479.638.638 0 0 1-.188.469z"/><path fill="#009800" d="M43.756 446.814a7.96 7.96 0 0 0-2.911-2.911 7.823 7.823 0 0 0-4.016-1.074c-1.451 0-2.79.358-4.016 1.073a7.963 7.963 0 0 0-2.911 2.912 7.818 7.818 0 0 0-1.073 4.015c0 1.451.358 2.79 1.073 4.016a7.96 7.96 0 0 0 2.911 2.911c1.226.715 2.564 1.073 4.016 1.073s2.79-.358 4.016-1.073a7.96 7.96 0 0 0 2.911-2.911 7.83 7.83 0 0 0 1.073-4.016c0-1.451-.358-2.79-1.073-4.015zm-1.74 2.797l-5.656 5.656a.653.653 0 0 1-.479.198.64.64 0 0 1-.469-.198l-3.771-3.771a.636.636 0 0 1-.188-.469c0-.194.062-.354.187-.479l.948-.937a.64.64 0 0 1 .469-.198.64.64 0 0 1 .469.198l2.354 2.354 4.25-4.24a.64.64 0 0 1 .469-.198c.18 0 .337.066.469.198l.948.938a.65.65 0 0 1 .188.479.638.638 0 0 1-.188.469z"/><path fill="#207de5" d="M68.756 446.814a7.96 7.96 0 0 0-2.911-2.911 7.823 7.823 0 0 0-4.016-1.074c-1.451 0-2.79.358-4.016 1.073a7.963 7.963 0 0 0-2.911 2.912 7.818 7.818 0 0 0-1.073 4.015c0 1.451.358 2.79 1.073 4.016a7.96 7.96 0 0 0 2.911 2.911c1.226.715 2.564 1.073 4.016 1.073s2.79-.358 4.016-1.073a7.96 7.96 0 0 0 2.911-2.911 7.83 7.83 0 0 0 1.073-4.016c0-1.451-.358-2.79-1.073-4.015zm-1.74 2.797l-5.656 5.656a.653.653 0 0 1-.479.198.64.64 0 0 1-.469-.198l-3.771-3.771a.636.636 0 0 1-.188-.469c0-.194.062-.354.187-.479l.948-.937a.64.64 0 0 1 .469-.198.64.64 0 0 1 .469.198l2.354 2.354 4.25-4.24a.64.64 0 0 1 .469-.198c.18 0 .337.066.469.198l.948.938a.65.65 0 0 1 .188.479.638.638 0 0 1-.188.469z"/><path fill="#fbca04" d="M93.756 446.814a7.96 7.96 0 0 0-2.911-2.911 7.823 7.823 0 0 0-4.016-1.074c-1.451 0-2.79.358-4.016 1.073a7.963 7.963 0 0 0-2.911 2.912 7.818 7.818 0 0 0-1.073 4.015c0 1.451.358 2.79 1.073 4.016a7.96 7.96 0 0 0 2.911 2.911c1.226.715 2.564 1.073 4.016 1.073s2.79-.358 4.016-1.073a7.96 7.96 0 0 0 2.911-2.911 7.83 7.83 0 0 0 1.073-4.016c0-1.451-.358-2.79-1.073-4.015zm-1.74 2.797l-5.656 5.656a.653.653 0 0 1-.479.198.64.64 0 0 1-.469-.198l-3.771-3.771a.636.636 0 0 1-.188-.469c0-.194.062-.354.187-.479l.948-.937a.64.64 0 0 1 .469-.198.64.64 0 0 1 .469.198l2.354 2.354 4.25-4.24a.64.64 0 0 1 .469-.198c.18 0 .337.066.469.198l.948.938a.65.65 0 0 1 .188.479.638.638 0 0 1-.188.469z"/><path fill="#fff" d="M118.756 446.814a7.96 7.96 0 0 0-2.911-2.911 7.823 7.823 0 0 0-4.016-1.074c-1.451 0-2.79.358-4.016 1.073a7.963 7.963 0 0 0-2.911 2.912 7.818 7.818 0 0 0-1.073 4.015c0 1.451.358 2.79 1.073 4.016a7.96 7.96 0 0 0 2.911 2.911c1.226.715 2.564 1.073 4.016 1.073s2.79-.358 4.016-1.073a7.96 7.96 0 0 0 2.911-2.911 7.83 7.83 0 0 0 1.073-4.016c0-1.451-.358-2.79-1.073-4.015zm-1.74 2.797l-5.656 5.656a.653.653 0 0 1-.479.198.64.64 0 0 1-.469-.198l-3.771-3.771a.636.636 0 0 1-.188-.469c0-.194.062-.354.187-.479l.948-.937a.64.64 0 0 1 .469-.198.64.64 0 0 1 .469.198l2.354 2.354 4.25-4.24a.64.64 0 0 1 .469-.198c.18 0 .337.066.469.198l.948.938a.65.65 0 0 1 .188.479.638.638 0 0 1-.188.469z"/><path d="M143.756 446.814a7.96 7.96 0 0 0-2.911-2.911 7.823 7.823 0 0 0-4.016-1.074c-1.451 0-2.79.358-4.016 1.073a7.963 7.963 0 0 0-2.911 2.912 7.818 7.818 0 0 0-1.073 4.015c0 1.451.358 2.79 1.073 4.016a7.96 7.96 0 0 0 2.911 2.911c1.226.715 2.564 1.073 4.016 1.073s2.79-.358 4.016-1.073a7.96 7.96 0 0 0 2.911-2.911 7.83 7.83 0 0 0 1.073-4.016c0-1.451-.358-2.79-1.073-4.015zm-1.74 2.797l-5.656 5.656a.653.653 0 0 1-.479.198.64.64 0 0 1-.469-.198l-3.771-3.771a.636.636 0 0 1-.188-.469c0-.194.062-.354.187-.479l.948-.937a.64.64 0 0 1 .469-.198.64.64 0 0 1 .469.198l2.354 2.354 4.25-4.24a.64.64 0 0 1 .469-.198c.18 0 .337.066.469.198l.948.938a.65.65 0 0 1 .188.479.638.638 0 0 1-.188.469z"/><path fill="#e11d21" d="M12 468c-4.411 0-8 3.589-8 8s3.589 8 8 8 8-3.589 8-8-3.589-8-8-8zm0 2.704c.97 0 1.881.263 2.663.72l-7.239 7.239a5.265 5.265 0 0 1-.72-2.663A5.302 5.302 0 0 1 12 470.704zm0 10.592c-.97 0-1.881-.263-2.663-.72l7.239-7.239c.458.783.72 1.693.72 2.663A5.302 5.302 0 0 1 12 481.296z"/><path fill="#009800" d="M37 468c-4.411 0-8 3.589-8 8s3.589 8 8 8 8-3.589 8-8-3.589-8-8-8zm0 2.704c.97 0 1.881.263 2.663.72l-7.239 7.239a5.265 5.265 0 0 1-.72-2.663A5.302 5.302 0 0 1 37 470.704zm0 10.592c-.97 0-1.881-.263-2.663-.72l7.239-7.239c.458.783.72 1.693.72 2.663A5.302 5.302 0 0 1 37 481.296z"/><path fill="#207de5" d="M62 468c-4.411 0-8 3.589-8 8s3.589 8 8 8 8-3.589 8-8-3.589-8-8-8zm0 2.704c.97 0 1.881.263 2.663.72l-7.239 7.239a5.265 5.265 0 0 1-.72-2.663A5.302 5.302 0 0 1 62 470.704zm0 10.592c-.97 0-1.881-.263-2.663-.72l7.239-7.239c.458.783.72 1.693.72 2.663A5.302 5.302 0 0 1 62 481.296z"/><path fill="#fbca04" d="M87 468c-4.411 0-8 3.589-8 8s3.589 8 8 8 8-3.589 8-8-3.589-8-8-8zm0 2.704c.97 0 1.881.263 2.663.72l-7.239 7.239a5.265 5.265 0 0 1-.72-2.663A5.302 5.302 0 0 1 87 470.704zm0 10.592c-.97 0-1.881-.263-2.663-.72l7.239-7.239c.458.783.72 1.693.72 2.663A5.302 5.302 0 0 1 87 481.296z"/><path fill="#fff" d="M112 468c-4.411 0-8 3.589-8 8s3.589 8 8 8 8-3.589 8-8-3.589-8-8-8zm0 2.704c.97 0 1.881.263 2.663.72l-7.239 7.239a5.265 5.265 0 0 1-.72-2.663 5.302 5.302 0 0 1 5.296-5.296zm0 10.592c-.97 0-1.881-.263-2.663-.72l7.239-7.239c.458.783.72 1.693.72 2.663a5.302 5.302 0 0 1-5.296 5.296z"/><path d="M137 468c-4.411 0-8 3.589-8 8s3.589 8 8 8 8-3.589 8-8-3.589-8-8-8zm0 2.704c.97 0 1.881.263 2.663.72l-7.239 7.239a5.265 5.265 0 0 1-.72-2.663 5.302 5.302 0 0 1 5.296-5.296zm0 10.592c-.97 0-1.881-.263-2.663-.72l7.239-7.239c.458.783.72 1.693.72 2.663a5.302 5.302 0 0 1-5.296 5.296z"/><path fill="#e11d21" d="M11.998999999999999 493A8 8 0 0 0 4 501a8.001 8.001 0 1 0 7.999-8zm3.439 10.166l-1.274 1.272s-2.016-2.163-2.166-2.163c-.148 0-2.164 2.163-2.164 2.163l-1.275-1.272s2.165-1.986 2.165-2.163c0-.18-2.165-2.167-2.165-2.167l1.275-1.275s2.033 2.164 2.164 2.164c.133 0 2.166-2.164 2.166-2.164l1.274 1.275s-2.166 2.016-2.166 2.167c.001.144 2.166 2.163 2.166 2.163z"/><path fill="#009800" d="M36.999 493A8 8 0 0 0 29 501a8.001 8.001 0 1 0 7.999-8zm3.439 10.166l-1.274 1.272s-2.016-2.163-2.166-2.163c-.148 0-2.164 2.163-2.164 2.163l-1.275-1.272s2.165-1.986 2.165-2.163c0-.18-2.165-2.167-2.165-2.167l1.275-1.275s2.033 2.164 2.164 2.164c.133 0 2.166-2.164 2.166-2.164l1.274 1.275s-2.166 2.016-2.166 2.167c.001.144 2.166 2.163 2.166 2.163z"/><path fill="#207de5" d="M61.999 493A8 8 0 0 0 54 501a8.001 8.001 0 1 0 7.999-8zm3.439 10.166l-1.274 1.272s-2.016-2.163-2.166-2.163c-.148 0-2.164 2.163-2.164 2.163l-1.275-1.272s2.165-1.986 2.165-2.163c0-.18-2.165-2.167-2.165-2.167l1.275-1.275s2.033 2.164 2.164 2.164c.133 0 2.166-2.164 2.166-2.164l1.274 1.275s-2.166 2.016-2.166 2.167c.001.144 2.166 2.163 2.166 2.163z"/><path fill="#fbca04" d="M86.999 493A8 8 0 0 0 79 501a8.001 8.001 0 1 0 7.999-8zm3.439 10.166l-1.274 1.272s-2.016-2.163-2.166-2.163c-.148 0-2.164 2.163-2.164 2.163l-1.275-1.272s2.165-1.986 2.165-2.163c0-.18-2.165-2.167-2.165-2.167l1.275-1.275s2.033 2.164 2.164 2.164c.133 0 2.166-2.164 2.166-2.164l1.274 1.275s-2.166 2.016-2.166 2.167c.001.144 2.166 2.163 2.166 2.163z"/><path fill="#fff" d="M111.999 493a8 8 0 0 0-7.999 8 8.001 8.001 0 1 0 7.999-8zm3.439 10.166l-1.274 1.272s-2.016-2.163-2.166-2.163c-.148 0-2.164 2.163-2.164 2.163l-1.275-1.272s2.165-1.986 2.165-2.163c0-.18-2.165-2.167-2.165-2.167l1.275-1.275s2.033 2.164 2.164 2.164c.133 0 2.166-2.164 2.166-2.164l1.274 1.275s-2.166 2.016-2.166 2.167c.001.144 2.166 2.163 2.166 2.163z"/><path d="M136.999 493a8 8 0 0 0-7.999 8 8.001 8.001 0 1 0 7.999-8zm3.439 10.166l-1.274 1.272s-2.016-2.163-2.166-2.163c-.148 0-2.164 2.163-2.164 2.163l-1.275-1.272s2.165-1.986 2.165-2.163c0-.18-2.165-2.167-2.165-2.167l1.275-1.275s2.033 2.164 2.164 2.164c.133 0 2.166-2.164 2.166-2.164l1.274 1.275s-2.166 2.016-2.166 2.167c.001.144 2.166 2.163 2.166 2.163z"/><path fill="#b5b9c4" d="M6 528h9l-4.5 5z"/><path d="M28 529h7l-3.5 4z"/><path fill="#777" d="M49 529h7l-3.5 4z"/><path fill="#64a5bb" d="M77.498 527.955a.989.989 0 0 0-.285-.668 1 1 0 0 0-.668-.287.987.987 0 0 0-.748.287l-2.297 2.297-2.296-2.297a.995.995 0 0 0-.75-.287 1 1 0 0 0-.668.287 1.007 1.007 0 0 0-.285.668.981.981 0 0 0 .285.748L72.084 531l-2.297 2.295a.99.99 0 0 0-.285.75c.009.242.1.483.285.668.185.183.426.274.668.285a.984.984 0 0 0 .748-.287l2.297-2.295 2.297 2.297a.997.997 0 0 0 .748.287 1 1 0 0 0 .668-.287 1 1 0 0 0 .287-.668.987.987 0 0 0-.287-.748L74.915 531l2.296-2.295a.991.991 0 0 0 .287-.75z"/></svg>